<svg width="398" height="109" viewBox="0 0 398 109" fill="none" xmlns="http://www.w3.org/2000/svg">
<path d="M96.06 57.4185L48.0247 84.4376L27.0182 72.6087V96.2566L48.0247 108.076L96.06 81.0554V57.4185Z" fill="#102660"/>
<path d="M21.0163 38.848L69.0418 11.8302L48.0243 8.39233e-05L0 27.0191V81.0559L21.0163 92.875V38.848Z" fill="#102660"/>
<path d="M75.0435 62.4858L96.0598 50.657V27.0201L75.0435 15.201L54.026 27.0201L75.0435 38.8379V62.4858Z" fill="#E97B2D"/>
<path d="M114.161 50V13.6364H128.72C131.395 13.6364 133.627 14.0329 135.414 14.826C137.201 15.6191 138.545 16.7199 139.445 18.1286C140.344 19.5253 140.794 21.1352 140.794 22.9581C140.794 24.3786 140.51 25.6274 139.942 26.7045C139.374 27.7699 138.592 28.6458 137.598 29.3324C136.616 30.0071 135.491 30.4865 134.224 30.7706V31.1257C135.609 31.1849 136.906 31.5755 138.113 32.2976C139.332 33.0196 140.321 34.0317 141.078 35.3338C141.836 36.6241 142.214 38.1629 142.214 39.9503C142.214 41.8797 141.735 43.602 140.776 45.1172C139.829 46.6205 138.427 47.8101 136.568 48.6861C134.71 49.562 132.419 50 129.697 50H114.161ZM121.849 43.7145H128.116C130.259 43.7145 131.821 43.3061 132.804 42.4893C133.786 41.6607 134.278 40.5599 134.278 39.1868C134.278 38.1806 134.035 37.2929 133.55 36.5234C133.064 35.754 132.372 35.1503 131.472 34.7124C130.585 34.2744 129.525 34.0554 128.294 34.0554H121.849V43.7145ZM121.849 28.853H127.548C128.602 28.853 129.537 28.6695 130.354 28.3026C131.182 27.9238 131.833 27.3911 132.307 26.7045C132.792 26.018 133.035 25.1953 133.035 24.2365C133.035 22.9226 132.567 21.8632 131.632 21.0582C130.709 20.2533 129.395 19.8509 127.69 19.8509H121.849V28.853ZM159.504 50.5327C156.699 50.5327 154.284 49.9645 152.26 48.8281C150.247 47.6799 148.697 46.0582 147.608 43.9631C146.519 41.8561 145.974 39.3643 145.974 36.4879C145.974 33.6825 146.519 31.2204 147.608 29.1016C148.697 26.9827 150.23 25.3314 152.206 24.1477C154.195 22.964 156.527 22.3722 159.202 22.3722C161.001 22.3722 162.676 22.6622 164.227 23.2422C165.79 23.8104 167.151 24.6686 168.311 25.8168C169.483 26.965 170.394 28.4091 171.045 30.1491C171.696 31.8774 172.022 33.9015 172.022 36.2216V38.299H148.993V33.6115H164.902C164.902 32.5225 164.665 31.5578 164.192 30.7173C163.718 29.8769 163.061 29.2199 162.221 28.7464C161.392 28.2611 160.427 28.0185 159.327 28.0185C158.178 28.0185 157.16 28.2848 156.273 28.8175C155.397 29.3383 154.71 30.0426 154.213 30.9304C153.716 31.8063 153.461 32.7829 153.449 33.8601V38.3168C153.449 39.6662 153.698 40.8321 154.195 41.8146C154.704 42.7971 155.42 43.5547 156.344 44.0874C157.267 44.62 158.362 44.8864 159.628 44.8864C160.469 44.8864 161.238 44.768 161.937 44.5312C162.635 44.2945 163.233 43.9394 163.73 43.4659C164.227 42.9924 164.606 42.4124 164.866 41.7259L171.862 42.1875C171.507 43.8684 170.779 45.3362 169.678 46.5909C168.589 47.8338 167.18 48.8045 165.452 49.5028C163.736 50.1894 161.753 50.5327 159.504 50.5327ZM187.008 50.4439C184.936 50.4439 183.06 49.9112 181.379 48.8459C179.71 47.7687 178.384 46.1884 177.402 44.1051C176.431 42.0099 175.946 39.4413 175.946 36.3991C175.946 33.2741 176.449 30.6759 177.455 28.6044C178.461 26.5211 179.799 24.9645 181.468 23.9347C183.149 22.893 184.989 22.3722 186.99 22.3722C188.517 22.3722 189.789 22.6326 190.807 23.1534C191.837 23.6624 192.666 24.3016 193.293 25.071C193.932 25.8286 194.418 26.5743 194.749 27.3082H194.98V13.6364H202.526V50H195.069V45.6321H194.749C194.394 46.3897 193.891 47.1413 193.24 47.8871C192.601 48.621 191.766 49.2306 190.736 49.7159C189.718 50.2012 188.475 50.4439 187.008 50.4439ZM189.405 44.4247C190.624 44.4247 191.654 44.0933 192.494 43.4304C193.346 42.7557 193.997 41.8146 194.447 40.6072C194.909 39.3999 195.14 37.9853 195.14 36.3636C195.14 34.742 194.915 33.3333 194.465 32.1378C194.015 30.9422 193.364 30.0189 192.512 29.3679C191.66 28.7169 190.624 28.3913 189.405 28.3913C188.162 28.3913 187.114 28.7287 186.262 29.4034C185.41 30.0781 184.765 31.0133 184.327 32.2088C183.889 33.4044 183.67 34.7893 183.67 36.3636C183.67 37.9498 183.889 39.3525 184.327 40.5717C184.776 41.7791 185.421 42.7261 186.262 43.4126C187.114 44.0874 188.162 44.4247 189.405 44.4247ZM208.745 50V22.7273H216.078V27.4858H216.362C216.859 25.7931 217.694 24.5147 218.866 23.6506C220.038 22.7746 221.387 22.3366 222.914 22.3366C223.293 22.3366 223.701 22.3603 224.139 22.4077C224.577 22.455 224.962 22.5201 225.293 22.603V29.3146C224.938 29.2081 224.447 29.1134 223.82 29.0305C223.192 28.9477 222.618 28.9062 222.097 28.9062C220.985 28.9062 219.99 29.1489 219.114 29.6342C218.25 30.1077 217.564 30.7706 217.055 31.6229C216.558 32.4751 216.309 33.4576 216.309 34.5703V50H208.745ZM240.257 50.5327C237.499 50.5327 235.114 49.9467 233.101 48.7749C231.101 47.5911 229.556 45.9458 228.467 43.8388C227.378 41.7199 226.834 39.2637 226.834 36.4702C226.834 33.6529 227.378 31.1908 228.467 29.0838C229.556 26.965 231.101 25.3196 233.101 24.1477C235.114 22.964 237.499 22.3722 240.257 22.3722C243.015 22.3722 245.394 22.964 247.395 24.1477C249.407 25.3196 250.958 26.965 252.047 29.0838C253.136 31.1908 253.68 33.6529 253.68 36.4702C253.68 39.2637 253.136 41.7199 252.047 43.8388C250.958 45.9458 249.407 47.5911 247.395 48.7749C245.394 49.9467 243.015 50.5327 240.257 50.5327ZM240.292 44.6733C241.547 44.6733 242.595 44.3182 243.435 43.608C244.276 42.8859 244.909 41.9034 245.335 40.6605C245.773 39.4176 245.992 38.0031 245.992 36.4169C245.992 34.8307 245.773 33.4162 245.335 32.1733C244.909 30.9304 244.276 29.9479 243.435 29.2259C242.595 28.5038 241.547 28.1428 240.292 28.1428C239.026 28.1428 237.961 28.5038 237.096 29.2259C236.244 29.9479 235.599 30.9304 235.161 32.1733C234.735 33.4162 234.522 34.8307 234.522 36.4169C234.522 38.0031 234.735 39.4176 235.161 40.6605C235.599 41.9034 236.244 42.8859 237.096 43.608C237.961 44.3182 239.026 44.6733 240.292 44.6733ZM270.921 50.5327C268.127 50.5327 265.724 49.9408 263.712 48.7571C261.712 47.5616 260.173 45.9044 259.096 43.7855C258.03 41.6667 257.498 39.2282 257.498 36.4702C257.498 33.6766 258.036 31.2263 259.113 29.1193C260.202 27.0005 261.747 25.3492 263.748 24.1655C265.748 22.9699 268.127 22.3722 270.885 22.3722C273.265 22.3722 275.348 22.8042 277.135 23.6683C278.923 24.5324 280.337 25.7457 281.379 27.3082C282.421 28.8707 282.995 30.7055 283.101 32.8125H275.964C275.762 31.4512 275.23 30.3563 274.366 29.5277C273.513 28.6873 272.395 28.267 271.01 28.267C269.838 28.267 268.814 28.5866 267.938 29.2259C267.074 29.8532 266.399 30.7706 265.914 31.978C265.429 33.1854 265.186 34.6473 265.186 36.3636C265.186 38.1037 265.423 39.5833 265.896 40.8026C266.381 42.0218 267.062 42.951 267.938 43.5902C268.814 44.2294 269.838 44.549 271.01 44.549C271.874 44.549 272.649 44.3714 273.336 44.0163C274.034 43.6612 274.608 43.1463 275.058 42.4716C275.52 41.785 275.822 40.9624 275.964 40.0036H283.101C282.983 42.0869 282.415 43.9216 281.397 45.5078C280.391 47.0821 279 48.3132 277.224 49.201C275.449 50.0888 273.348 50.5327 270.921 50.5327ZM294.798 42.152L294.816 33.0788H295.917L304.652 22.7273H313.335L301.598 36.4347H299.805L294.798 42.152ZM287.944 50V13.6364H295.508V50H287.944ZM304.99 50L296.964 38.1214L302.007 32.777L313.85 50H304.99ZM121.849 63.6364V100H114.161V63.6364H121.849ZM135.596 84.233V100H128.032V72.7273H135.241V77.5391H135.561C136.164 75.9529 137.176 74.6982 138.597 73.7749C140.017 72.8397 141.74 72.3722 143.764 72.3722C145.658 72.3722 147.309 72.7865 148.718 73.6151C150.126 74.4437 151.221 75.6274 152.002 77.1662C152.784 78.6932 153.174 80.5161 153.174 82.6349V100H145.61V83.9844C145.622 82.3153 145.196 81.0133 144.332 80.0781C143.468 79.1312 142.278 78.6577 140.763 78.6577C139.745 78.6577 138.845 78.8767 138.064 79.3146C137.295 79.7526 136.691 80.3918 136.253 81.2322C135.827 82.0608 135.608 83.0611 135.596 84.233ZM166.7 84.233V100H159.136V72.7273H166.344V77.5391H166.664C167.268 75.9529 168.28 74.6982 169.7 73.7749C171.121 72.8397 172.843 72.3722 174.867 72.3722C176.761 72.3722 178.412 72.7865 179.821 73.6151C181.23 74.4437 182.325 75.6274 183.106 77.1662C183.887 78.6932 184.278 80.5161 184.278 82.6349V100H176.714V83.9844C176.726 82.3153 176.299 81.0133 175.435 80.0781C174.571 79.1312 173.382 78.6577 171.866 78.6577C170.848 78.6577 169.949 78.8767 169.168 79.3146C168.398 79.7526 167.795 80.3918 167.357 81.2322C166.93 82.0608 166.711 83.0611 166.7 84.233ZM202.562 100.533C199.804 100.533 197.418 99.9467 195.406 98.7749C193.406 97.5911 191.861 95.9458 190.772 93.8388C189.683 91.7199 189.138 89.2637 189.138 86.4702C189.138 83.6529 189.683 81.1908 190.772 79.0838C191.861 76.965 193.406 75.3196 195.406 74.1477C197.418 72.964 199.804 72.3722 202.562 72.3722C205.32 72.3722 207.699 72.964 209.699 74.1477C211.712 75.3196 213.262 76.965 214.351 79.0838C215.44 81.1908 215.985 83.6529 215.985 86.4702C215.985 89.2637 215.44 91.7199 214.351 93.8388C213.262 95.9458 211.712 97.5911 209.699 98.7749C207.699 99.9467 205.32 100.533 202.562 100.533ZM202.597 94.6733C203.852 94.6733 204.899 94.3182 205.74 93.608C206.58 92.8859 207.214 91.9034 207.64 90.6605C208.078 89.4176 208.297 88.0031 208.297 86.4169C208.297 84.8307 208.078 83.4162 207.64 82.1733C207.214 80.9304 206.58 79.9479 205.74 79.2259C204.899 78.5038 203.852 78.1428 202.597 78.1428C201.331 78.1428 200.265 78.5038 199.401 79.2259C198.549 79.9479 197.904 80.9304 197.466 82.1733C197.04 83.4162 196.827 84.8307 196.827 86.4169C196.827 88.0031 197.04 89.4176 197.466 90.6605C197.904 91.9034 198.549 92.8859 199.401 93.608C200.265 94.3182 201.331 94.6733 202.597 94.6733ZM245.45 72.7273L235.916 100H227.393L217.858 72.7273H225.848L231.512 92.2408H231.796L237.443 72.7273H245.45ZM256.366 100.515C254.626 100.515 253.075 100.213 251.714 99.6094C250.353 98.9938 249.275 98.0883 248.482 96.8928C247.701 95.6854 247.31 94.1821 247.31 92.3828C247.31 90.8677 247.589 89.5952 248.145 88.5653C248.701 87.5355 249.459 86.7069 250.418 86.0795C251.376 85.4522 252.465 84.9787 253.685 84.6591C254.916 84.3395 256.206 84.1146 257.555 83.9844C259.142 83.8187 260.42 83.6648 261.391 83.5227C262.361 83.3688 263.066 83.1439 263.504 82.848C263.942 82.5521 264.161 82.1141 264.161 81.5341V81.4276C264.161 80.303 263.805 79.433 263.095 78.8175C262.397 78.2019 261.402 77.8942 260.112 77.8942C258.751 77.8942 257.668 78.196 256.863 78.7997C256.058 79.3916 255.525 80.1373 255.265 81.0369L248.269 80.4688C248.624 78.8116 249.323 77.3793 250.364 76.1719C251.406 74.9527 252.75 74.0175 254.395 73.3665C256.052 72.7036 257.97 72.3722 260.148 72.3722C261.663 72.3722 263.113 72.5497 264.498 72.9048C265.895 73.2599 267.132 73.8104 268.209 74.5561C269.298 75.3018 270.156 76.2607 270.783 77.4325C271.411 78.5926 271.724 79.9834 271.724 81.6051V100H264.551V96.218H264.338C263.9 97.0703 263.314 97.822 262.58 98.473C261.846 99.1122 260.964 99.6153 259.935 99.9822C258.905 100.337 257.715 100.515 256.366 100.515ZM258.532 95.2947C259.645 95.2947 260.627 95.0758 261.479 94.6378C262.332 94.188 263 93.5843 263.486 92.8267C263.971 92.0691 264.214 91.2109 264.214 90.2521V87.358C263.977 87.5118 263.652 87.6539 263.237 87.7841C262.835 87.9025 262.379 88.0149 261.87 88.1214C261.361 88.2161 260.852 88.3049 260.343 88.3878C259.834 88.4588 259.372 88.5239 258.958 88.5831C258.07 88.7133 257.295 88.9205 256.632 89.2045C255.969 89.4886 255.454 89.8733 255.087 90.3587C254.72 90.8321 254.537 91.424 254.537 92.1342C254.537 93.1641 254.91 93.9512 255.656 94.4957C256.413 95.0284 257.372 95.2947 258.532 95.2947ZM292.099 72.7273V78.4091H275.675V72.7273H292.099ZM279.404 66.1932H286.968V91.6193C286.968 92.3177 287.074 92.8622 287.287 93.2528C287.5 93.6316 287.796 93.898 288.175 94.0518C288.566 94.2057 289.016 94.2827 289.525 94.2827C289.88 94.2827 290.235 94.2531 290.59 94.1939C290.945 94.1229 291.217 94.0696 291.407 94.0341L292.596 99.6626C292.217 99.781 291.685 99.9171 290.998 100.071C290.312 100.237 289.477 100.337 288.495 100.373C286.672 100.444 285.074 100.201 283.701 99.6449C282.339 99.0885 281.28 98.2244 280.522 97.0526C279.765 95.8807 279.392 94.401 279.404 92.6136V66.1932ZM297.026 100V72.7273H304.59V100H297.026ZM300.826 69.2116C299.701 69.2116 298.737 68.8388 297.932 68.093C297.139 67.3355 296.742 66.4299 296.742 65.3764C296.742 64.3348 297.139 63.4411 297.932 62.6953C298.737 61.9377 299.701 61.5589 300.826 61.5589C301.951 61.5589 302.909 61.9377 303.702 62.6953C304.507 63.4411 304.91 64.3348 304.91 65.3764C304.91 66.4299 304.507 67.3355 303.702 68.093C302.909 68.8388 301.951 69.2116 300.826 69.2116ZM322.972 100.533C320.214 100.533 317.829 99.9467 315.816 98.7749C313.816 97.5911 312.271 95.9458 311.182 93.8388C310.093 91.7199 309.548 89.2637 309.548 86.4702C309.548 83.6529 310.093 81.1908 311.182 79.0838C312.271 76.965 313.816 75.3196 315.816 74.1477C317.829 72.964 320.214 72.3722 322.972 72.3722C325.73 72.3722 328.109 72.964 330.11 74.1477C332.122 75.3196 333.673 76.965 334.762 79.0838C335.851 81.1908 336.395 83.6529 336.395 86.4702C336.395 89.2637 335.851 91.7199 334.762 93.8388C333.673 95.9458 332.122 97.5911 330.11 98.7749C328.109 99.9467 325.73 100.533 322.972 100.533ZM323.007 94.6733C324.262 94.6733 325.31 94.3182 326.15 93.608C326.99 92.8859 327.624 91.9034 328.05 90.6605C328.488 89.4176 328.707 88.0031 328.707 86.4169C328.707 84.8307 328.488 83.4162 328.05 82.1733C327.624 80.9304 326.99 79.9479 326.15 79.2259C325.31 78.5038 324.262 78.1428 323.007 78.1428C321.741 78.1428 320.675 78.5038 319.811 79.2259C318.959 79.9479 318.314 80.9304 317.876 82.1733C317.45 83.4162 317.237 84.8307 317.237 86.4169C317.237 88.0031 317.45 89.4176 317.876 90.6605C318.314 91.9034 318.959 92.8859 319.811 93.608C320.675 94.3182 321.741 94.6733 323.007 94.6733ZM348.877 84.233V100H341.313V72.7273H348.522V77.5391H348.842C349.445 75.9529 350.458 74.6982 351.878 73.7749C353.298 72.8397 355.021 72.3722 357.045 72.3722C358.939 72.3722 360.59 72.7865 361.999 73.6151C363.407 74.4437 364.502 75.6274 365.284 77.1662C366.065 78.6932 366.455 80.5161 366.455 82.6349V100H358.892V83.9844C358.903 82.3153 358.477 81.0133 357.613 80.0781C356.749 79.1312 355.559 78.6577 354.044 78.6577C353.026 78.6577 352.127 78.8767 351.345 79.3146C350.576 79.7526 349.972 80.3918 349.534 81.2322C349.108 82.0608 348.889 83.0611 348.877 84.233ZM395.109 80.5043L388.184 80.9304C388.066 80.3385 387.811 79.8059 387.42 79.3324C387.03 78.8471 386.515 78.4624 385.876 78.1783C385.248 77.8823 384.497 77.7344 383.621 77.7344C382.449 77.7344 381.46 77.983 380.656 78.4801C379.851 78.9654 379.448 79.6165 379.448 80.4332C379.448 81.0843 379.709 81.6347 380.229 82.0845C380.75 82.5343 381.644 82.8954 382.911 83.1676L387.847 84.1619C390.498 84.7064 392.475 85.5824 393.777 86.7898C395.079 87.9972 395.73 89.5833 395.73 91.5483C395.73 93.3357 395.203 94.9041 394.15 96.2536C393.108 97.603 391.676 98.6565 389.853 99.4141C388.042 100.16 385.953 100.533 383.585 100.533C379.975 100.533 377.098 99.781 374.956 98.2777C372.825 96.7625 371.576 94.7029 371.21 92.0987L378.649 91.7081C378.874 92.8089 379.419 93.6494 380.283 94.2294C381.147 94.7976 382.254 95.0817 383.603 95.0817C384.929 95.0817 385.994 94.8272 386.799 94.3182C387.616 93.7973 388.03 93.1286 388.042 92.3118C388.03 91.6252 387.74 91.063 387.172 90.625C386.604 90.1752 385.728 89.8319 384.544 89.5952L379.821 88.6541C377.158 88.1214 375.175 87.1982 373.873 85.8842C372.583 84.5703 371.938 82.8954 371.938 80.8594C371.938 79.1075 372.411 77.5982 373.358 76.3317C374.317 75.0651 375.66 74.0885 377.388 73.402C379.129 72.7154 381.165 72.3722 383.496 72.3722C386.941 72.3722 389.652 73.1001 391.629 74.5561C393.617 76.0121 394.777 77.9948 395.109 80.5043Z" fill="#E97B2D"/>
</svg>
